<?xml version="1.0" standalone="no"?>
<!DOCTYPE svg PUBLIC "-//W3C//DTD SVG 20010904//EN"
 "http://www.w3.org/TR/2001/REC-SVG-20010904/DTD/svg10.dtd">
<svg version="1.0" xmlns="http://www.w3.org/2000/svg"
 width="285.000000pt" height="177.000000pt" viewBox="0 0 285.000000 177.000000"
 preserveAspectRatio="xMidYMid meet">

<g transform="translate(0.000000,177.000000) scale(0.100000,-0.100000)"
fill="#000000" stroke="none">
<path d="M1430 1622 c-19 -9 -45 -32 -57 -51 -20 -30 -23 -47 -23 -132 l0 -99
75 0 74 0 3 78 3 77 60 0 60 0 0 -215 0 -215 -32 -3 -33 -3 0 -87 0 -87 78 5
c52 3 87 11 106 23 52 34 56 61 56 355 0 263 -1 270 -23 303 -37 56 -76 69
-202 69 -85 0 -118 -4 -145 -18z"/>
<path d="M1895 611 c-132 -34 -214 -148 -202 -281 12 -139 114 -231 257 -233
125 -1 224 69 257 182 37 130 -24 267 -143 317 -41 17 -130 25 -169 15z m122
-86 c50 -21 72 -42 94 -90 49 -105 -5 -226 -112 -255 -140 -38 -261 110 -204
247 21 50 42 72 90 94 49 23 84 24 132 4z"/>
<path d="M138 355 l-3 -255 43 0 42 0 0 110 0 110 125 0 125 0 0 -110 0 -110
40 0 40 0 0 255 0 255 -40 0 -40 0 0 -105 0 -105 -125 0 -125 0 0 105 0 105
-40 0 -39 0 -3 -255z"/>
<path d="M660 455 c0 -84 5 -177 11 -206 13 -62 64 -122 117 -140 56 -19 153
-14 198 9 91 46 106 89 112 315 l4 177 -45 0 -46 0 -3 -179 c-3 -206 -10 -225
-86 -249 -54 -18 -116 0 -146 41 -19 26 -21 44 -24 208 l-3 179 -45 0 -44 0 0
-155z"/>
<path d="M1200 356 l0 -256 45 0 45 0 0 90 0 90 58 0 58 0 62 -90 63 -90 50 0
c58 0 60 -9 -25 109 -33 47 -56 86 -51 88 27 9 76 45 89 66 47 71 18 182 -59
221 -34 18 -63 22 -187 24 l-148 4 0 -256z m301 145 c37 -38 38 -79 3 -115
-25 -24 -33 -26 -120 -26 l-94 0 0 85 0 85 91 0 c87 0 92 -1 120 -29z"/>
<path d="M2310 355 l0 -255 45 0 45 0 2 180 3 179 139 -179 c131 -170 141
-180 173 -180 l33 0 0 255 0 255 -40 0 -40 0 -2 -175 -3 -175 -135 174 -135
175 -42 1 -43 0 0 -255z"/>
</g>
</svg>
